External Loads File
version=1
nRows=69
nColumns=13
Range=5.000000e-03-10 seconds
endheader
time 	forceRightX 	forceRightY 	forceRightZ 	pointRightX 	pointRightY 	pointRightZ 	forceLeftX 	forceLeftY 	forceLeftZ 	pointLeftX 	pointLeftY 	pointLeftZ 		
5.005000 110.261381 171.411475 -0.000000 0.224377 0.158017 -0.141257 -86.761126 105.488179 -0.000000 0.355238 0.486213 -0.382753
5.010000 105.983326 136.012250 -0.000000 0.214856 0.163755 -0.141983 -80.503626 144.639544 -0.000000 0.362019 0.481466 -0.383502
5.015000 101.872457 103.184096 -0.000000 0.205793 0.170086 -0.142666 -76.053133 185.655730 -0.000000 0.368025 0.476032 -0.384025
5.020000 97.624521 72.448033 -0.000000 0.197128 0.177166 -0.143244 -73.578994 229.091252 -0.000000 0.373559 0.469790 -0.384634
5.025000 92.885612 43.639284 -0.000000 0.188843 0.184951 -0.143910 -72.854719 275.322343 -0.000000 0.379049 0.462908 -0.385414
5.030000 87.329112 16.984528 -0.000000 0.180504 0.193123 -0.144960 -73.776617 324.285349 -0.000000 0.383861 0.455363 -0.385947
5.035000 80.912418 -7.007153 -0.000000 0.173761 0.201821 -0.145146 -76.873323 375.350796 -0.000000 0.388302 0.447188 -0.386356
5.040000 73.816534 -28.313556 -0.000000 0.166975 0.210767 -0.145620 -80.412056 427.967612 -0.000000 0.392536 0.438355 -0.386525
5.045000 66.291569 -46.459255 -0.000000 0.160729 0.219852 -0.145808 -84.741149 480.871041 -0.000000 0.396688 0.429240 -0.386603
5.050000 58.620198 -61.282682 -0.000000 0.155304 0.229276 -0.146186 -89.512572 532.876790 -0.000000 0.400666 0.419633 -0.386539
5.055000 51.065535 -72.717821 -0.000000 0.150363 0.238735 -0.146396 -94.759169 582.883535 -0.000000 0.404501 0.409768 -0.386329
5.060000 43.919169 -80.773147 -0.000000 0.146327 0.248194 -0.146499 -101.161811 629.987465 -0.000000 0.407988 0.399709 -0.386058
5.065000 37.245558 -85.696822 -0.000000 0.142352 0.257655 -0.146885 -107.697720 673.803358 -0.000000 0.411171 0.389533 -0.385770
5.070000 31.257358 -87.778579 -0.000000 0.139659 0.267244 -0.146768 -114.472831 713.899337 -0.000000 0.413901 0.379040 -0.385443
5.075000 25.955580 -87.504808 -0.000000 0.137404 0.276983 -0.146427 -120.257162 750.261441 -0.000000 0.416231 0.368458 -0.385186
5.080000 21.351975 -85.382284 -0.000000 0.135897 0.286957 -0.146380 -124.416013 783.077569 -0.000000 0.418090 0.357731 -0.384891
5.085000 17.429392 -81.917672 -0.000000 0.135050 0.297056 -0.146591 -126.536321 812.722505 -0.000000 0.419357 0.346828 -0.384734
5.090000 14.092862 -77.579319 -0.000000 0.134613 0.307306 -0.146649 -126.014632 839.692427 -0.000000 0.420100 0.335798 -0.384702
5.095000 11.289405 -72.758390 -0.000000 0.134825 0.317613 -0.146697 -123.283709 864.373141 -0.000000 0.420292 0.324764 -0.384741
5.100000 8.858770 -67.833588 -0.000000 0.135480 0.328060 -0.146807 -117.807250 887.330916 -0.000000 0.419895 0.313699 -0.384639
5.105000 6.711714 -63.157685 -0.000000 0.136746 0.338702 -0.146990 -109.518099 909.009993 -0.000000 0.418907 0.302668 -0.384755
5.110000 4.841113 -59.044030 -0.000000 0.138689 0.349304 -0.147139 -99.328288 929.603416 -0.000000 0.417411 0.291741 -0.384908
5.115000 3.178633 -55.750668 -0.000000 0.140895 0.359938 -0.147219 -87.719571 949.235620 -0.000000 0.415393 0.280979 -0.384954
5.120000 1.631086 -53.442724 -0.000000 0.143677 0.370407 -0.147570 -75.609938 967.908444 -0.000000 0.412873 0.270428 -0.385062
5.125000 -0.009710 -52.179346 -0.000000 0.147042 0.380907 -0.147677 -62.690398 985.651008 -0.000000 0.409839 0.260144 -0.385024
5.130000 -1.892646 -51.901898 -0.000000 0.150968 0.391206 -0.147918 -49.813505 1002.247148 -0.000000 0.406376 0.250175 -0.384901
5.135000 -4.186602 -52.445631 -0.000000 0.155537 0.401259 -0.148027 -36.496534 1017.312011 -0.000000 0.402429 0.240574 -0.384714
5.140000 -6.991581 -53.581944 -0.000000 0.160419 0.411137 -0.148289 -22.152837 1030.177720 -0.000000 0.397895 0.231360 -0.384482
5.145000 -10.367139 -55.076568 -0.000000 0.165904 0.420701 -0.148553 -5.981419 1040.039989 -0.000000 0.392859 0.222512 -0.384246
5.150000 -14.278844 -56.740792 -0.000000 0.171795 0.429875 -0.148928 11.717747 1046.115822 -0.000000 0.387322 0.214094 -0.384017
5.155000 -18.729297 -58.431794 -0.000000 0.178382 0.438624 -0.149072 31.787192 1047.748781 -0.000000 0.381280 0.206076 -0.383826
5.160000 -23.672072 -60.071163 -0.000000 0.185337 0.447329 -0.149424 54.124982 1044.440896 -0.000000 0.374753 0.198464 -0.383665
5.165000 -28.926592 -61.669439 -0.000000 0.192683 0.454986 -0.149782 76.029538 1036.093756 -0.000000 0.367812 0.191332 -0.383459
5.170000 -34.570016 -63.120478 -0.000000 0.200474 0.462300 -0.150162 98.751832 1022.721099 -0.000000 0.360436 0.184746 -0.383319
5.175000 -40.571723 -64.286105 -0.000000 0.208623 0.469085 -0.150508 121.130828 1004.772707 -0.000000 0.352712 0.178669 -0.383112
5.180000 -47.089540 -64.766831 -0.000000 0.217922 0.475342 -0.150268 144.918483 982.526411 -0.000000 0.344624 0.173162 -0.382953
5.185000 -53.806202 -64.301863 -0.000000 0.226503 0.481472 -0.151100 165.003013 957.218352 -0.000000 0.336251 0.168262 -0.382790
5.190000 -60.773737 -62.188144 -0.000000 0.235453 0.485753 -0.151525 182.721240 929.079259 -0.000000 0.327560 0.163939 -0.382706
5.195000 -68.002408 -57.468549 -0.000000 0.244827 0.490672 -0.151941 200.108439 897.596793 -0.000000 0.318716 0.160206 -0.382554
5.200000 -75.086372 -49.393229 -0.000000 0.254413 0.494204 -0.152195 215.196730 862.532501 -0.000000 0.309651 0.157092 -0.382429
5.205000 -81.647581 -37.118968 -0.000000 0.264483 0.497257 -0.152168 229.000195 822.635049 -0.000000 0.300457 0.154616 -0.382397
5.210000 -87.027565 -20.376728 -0.000000 0.274362 0.499688 -0.152506 239.584524 777.215149 -0.000000 0.291153 0.152809 -0.382308
5.215000 -90.646086 0.802447 -0.000000 0.284169 0.501391 -0.152867 246.795812 725.210458 -0.000000 0.281818 0.151708 -0.382220
5.220000 -91.951962 25.965527 -0.000000 0.294128 0.502503 -0.153158 250.791147 665.770462 -0.000000 0.272427 0.151343 -0.382149
5.225000 -90.605122 53.984569 -0.000000 0.303522 0.502992 -0.153317 249.688052 599.430646 -0.000000 0.263055 0.151749 -0.382094
5.230000 -86.509078 83.768286 -0.000000 0.312540 0.502869 -0.153438 243.656840 526.802124 -0.000000 0.253772 0.152911 -0.382044
5.235000 -79.848183 114.240220 -0.000000 0.321195 0.502138 -0.153554 232.761730 449.276387 -0.000000 0.244597 0.154815 -0.381940
5.240000 -71.022538 144.658185 -0.000000 0.329783 0.500800 -0.153590 217.437092 368.679493 -0.000000 0.235635 0.157405 -0.381708
5.245000 -61.007585 174.589404 -0.000000 0.337489 0.498650 -0.153585 197.450150 287.698499 -0.000000 0.226828 0.160631 -0.381440
5.250000 -50.533612 204.343598 -0.000000 0.344720 0.495770 -0.153021 173.976530 208.492013 -0.000000 0.218232 0.164415 -0.381201
5.255000 -40.251683 234.610785 -0.000000 0.351691 0.492067 -0.152896 148.046478 133.215134 -0.000000 0.209848 0.168742 -0.380975
5.260000 -31.139837 266.228027 -0.000000 0.358017 0.487343 -0.152688 120.439439 64.083628 -0.000000 0.201843 0.173557 -0.380799
5.265000 -23.261659 300.186804 -0.000000 0.364370 0.482008 -0.152196 92.314416 2.564717 -0.000000 0.194032 0.178818 -0.380684
5.270000 -17.367622 337.215794 -0.000000 0.370151 0.475917 -0.151823 64.581497 -49.904330 -0.000000 0.186583 0.184603 -0.380529
5.275000 -13.541755 377.731374 -0.000000 0.375549 0.469141 -0.151343 38.233148 -92.682408 -0.000000 0.179450 0.190749 -0.380560
5.280000 -11.555871 421.582734 -0.000000 0.380675 0.461553 -0.151020 14.060775 -125.632707 -0.000000 0.172631 0.197289 -0.380518
5.285000 -11.180713 467.971168 -0.000000 0.385682 0.453391 -0.150708 -7.251957 -149.026071 -0.000000 0.166026 0.204247 -0.380491
5.290000 -11.935862 515.546892 -0.000000 0.390450 0.444741 -0.150596 -25.195280 -163.501448 -0.000000 0.159231 0.211653 -0.379644
5.295000 -15.468729 562.622211 -0.000000 0.394946 0.435725 -0.150333 -38.723593 -170.130423 -0.000000 0.153521 0.219406 -0.379649
5.300000 -20.358322 607.659900 -0.000000 0.399479 0.426482 -0.150275 -47.994275 -170.071151 -0.000000 0.148147 0.227684 -0.379755
5.305000 -26.344384 649.494031 -0.000000 0.403801 0.416658 -0.150087 -53.029680 -164.650935 -0.000000 0.143222 0.236394 -0.379840
5.310000 -33.618746 687.474948 -0.000000 0.408178 0.406745 -0.150152 -53.947529 -155.287211 -0.000000 0.138740 0.245484 -0.379846
5.315000 -42.030300 721.440298 -0.000000 0.411941 0.396429 -0.150466 -51.150714 -143.314778 -0.000000 0.134767 0.254925 -0.379976
5.320000 -51.650678 751.534232 -0.000000 0.415275 0.386144 -0.150592 -45.188080 -129.910292 -0.000000 0.131337 0.264660 -0.380018
5.325000 -61.270496 778.183190 -0.000000 0.418102 0.375624 -0.150505 -36.935197 -115.896567 -0.000000 0.128547 0.274642 -0.380093
5.330000 -69.611136 801.961634 -0.000000 0.420403 0.364955 -0.150521 -27.196638 -101.827418 -0.000000 0.126231 0.284978 -0.380055
5.335000 -76.569707 823.395593 -0.000000 0.422235 0.354102 -0.150430 -16.524828 -88.050783 -0.000000 0.124575 0.295334 -0.380127
5.340000 -80.780914 843.110505 -0.000000 0.423502 0.343132 -0.150332 -5.483973 -74.689689 -0.000000 0.123538 0.305971 -0.380127
5.345000 -83.078055 861.490150 -0.000000 0.424445 0.332218 -0.150844 5.741683 -61.824862 -0.000000 0.123053 0.316520 -0.380175
